<svg data-v-fde0c5aa="" xmlns="http://www.w3.org/2000/svg" viewBox="0 0 300 300" class="iconLeft"><!----><defs data-v-fde0c5aa=""><!----></defs><rect data-v-fde0c5aa="" fill="transparent" x="0" y="0" width="300px" height="300px" class="logo-background-square"></rect><defs data-v-fde0c5aa=""><!----></defs><g data-v-fde0c5aa="" id="3c3a0e6f-9513-40f5-9743-fce35de3bc70" fill="#000000"><path d=""></path></g><defs data-v-fde0c5aa=""><linearGradient data-v-fde0c5aa="" gradientTransform="rotate(25)" id="deeddd75-881d-47db-8166-418502d33741" x1="0%" y1="0%" x2="100%" y2="0%"><stop data-v-fde0c5aa="" offset="0%" stop-color="#67635D" stop-opacity="1"></stop><stop data-v-fde0c5aa="" offset="100%" stop-color="#FFD6AD" stop-opacity="1"></stop></linearGradient></defs><g data-v-fde0c5aa="" id="94f84b40-1401-4a6c-9193-1939d9d830ed" stroke="none" fill="url(#deeddd75-881d-47db-8166-418502d33741)"><style></style><path d="M65.106 27.546h-1.533c-.387-3.943-3.72-7.034-7.764-7.034s-7.377 3.091-7.765 7.034h-1.229a1 1 0 0 0-1 1v4.803a1 1 0 0 0 1 1h.518v30.673h-.518a1 1 0 0 0-1 1v4.804a1 1 0 0 0 1 1h1.543c.441 3.832 3.701 6.819 7.649 6.819s7.207-2.987 7.648-6.819h1.45a1 1 0 0 0 1-1v-4.804a1 1 0 0 0-1-1h-.515V34.349h.517a1 1 0 0 0 1-1v-4.803a1 1 0 0 0-1.001-1zm-9.296-5.034c2.938 0 5.368 2.198 5.746 5.034H50.063c.378-2.837 2.808-5.034 5.747-5.034zm-7.995 7.034h16.291v2.803H47.815v-2.803zm1.518 13.197l13.257 8.826v5.744l-13.257-8.827v-5.743zm13.257 6.424L49.333 40.34v-5.744l13.257 8.827v5.744zm-13.257 9.879l8.882 5.975h-8.882v-5.975zm6.675 17.599c-2.844 0-5.201-2.094-5.628-4.819h11.256c-.428 2.725-2.785 4.819-5.628 4.819zm8.098-6.82H47.815v-2.804h16.291v2.804zm-2.329-4.804c-.017-.014-.027-.033-.045-.046l-12.398-8.341v-5.746l13.257 8.827v5.306h-.814zm.813-24l-10.021-6.672H62.59v6.672z"></path><path d="M55.961 15.228c-10.699 0-20.268 4.919-26.572 12.613H12.125V10.979a1 1 0 1 0-2 0v78a1 1 0 1 0 2 0V71.341h17.296c6.304 7.671 15.86 12.573 26.54 12.573 18.938 0 34.344-15.406 34.344-34.343 0-18.937-15.407-34.343-34.344-34.343zM12.125 69.341v-39.5h15.752a34.142 34.142 0 0 0-6.259 19.73 34.144 34.144 0 0 0 6.287 19.77h-15.78zm43.836 12.573c-17.834 0-32.343-14.509-32.343-32.343s14.509-32.344 32.343-32.344 32.344 14.51 32.344 32.344-14.51 32.343-32.344 32.343z"></path></g><!----></svg>