<svg data-v-423bf9ae="" xmlns="http://www.w3.org/2000/svg" viewBox="0 0 491 90" class="iconLeft"><!----><!----><!----><g data-v-423bf9ae="" id="bef9ab11-a933-42d9-9328-4733ac2ba9ae" fill="#000000" transform="matrix(4.285714285714286,0,0,4.285714285714286,106.00250250952584,7.799999475479126)"><path d="M0.98 2.80L0.98 12.60L3.99 12.60C4.96 12.60 5.77 12.33 6.42 11.79C7.07 11.26 7.39 10.55 7.39 9.66C7.39 9.03 7.22 8.50 6.87 8.09C6.52 7.68 6.04 7.38 5.43 7.20C6.37 6.89 6.83 6.26 6.83 5.32C6.83 4.55 6.55 3.94 5.98 3.49C5.41 3.03 4.65 2.80 3.71 2.80ZM2.52 6.58L2.52 4.20L3.71 4.20C4.76 4.20 5.29 4.60 5.29 5.39C5.29 5.79 5.17 6.09 4.91 6.29C4.66 6.48 4.26 6.58 3.71 6.58ZM2.52 7.98L3.99 7.98C4.56 7.98 5.01 8.12 5.35 8.39C5.68 8.67 5.85 9.07 5.85 9.59C5.85 10.11 5.68 10.51 5.35 10.79C5.01 11.06 4.56 11.20 3.99 11.20L2.52 11.20ZM8.93 1.68L8.93 12.60L10.40 12.60L10.40 1.68ZM16.81 8.69L13.26 8.69C13.32 8.26 13.54 7.92 13.90 7.66C14.25 7.41 14.67 7.28 15.13 7.28C16.12 7.28 16.68 7.75 16.81 8.69ZM13.23 9.73L18.35 9.73C18.37 9.61 18.38 9.45 18.38 9.25C18.38 8.25 18.09 7.45 17.50 6.88C16.91 6.31 16.12 6.02 15.13 6.02C14.13 6.02 13.31 6.33 12.68 6.96C12.05 7.59 11.73 8.40 11.73 9.38C11.73 10.38 12.03 11.19 12.64 11.81C13.24 12.43 14.07 12.74 15.13 12.74C16.54 12.74 17.57 12.24 18.23 11.24L17.12 10.56C16.77 11.13 16.10 11.41 15.13 11.41C14.62 11.41 14.19 11.27 13.85 10.98C13.50 10.69 13.30 10.27 13.23 9.73ZM21.18 7.15L21.18 6.16L19.71 6.16L19.71 12.60L21.18 12.60L21.18 8.96C21.18 8.51 21.35 8.13 21.68 7.82C22.01 7.51 22.39 7.35 22.82 7.35C23.23 7.35 23.54 7.45 23.74 7.64C23.95 7.83 24.05 8.18 24.05 8.68L24.05 12.60L25.52 12.60L25.52 8.54C25.52 7.63 25.32 6.98 24.93 6.59C24.53 6.21 23.97 6.02 23.24 6.02C22.35 6.02 21.67 6.40 21.18 7.15ZM26.78 9.38C26.78 10.44 27.09 11.27 27.72 11.86C28.35 12.45 29.12 12.74 30.04 12.74C31.04 12.74 31.80 12.31 32.31 11.45L32.31 12.60L33.78 12.60L33.78 1.68L32.31 1.68L32.31 7.31C31.80 6.45 31.04 6.02 30.04 6.02C29.12 6.02 28.35 6.31 27.72 6.90C27.09 7.49 26.78 8.32 26.78 9.38ZM28.27 9.38C28.27 8.73 28.46 8.22 28.83 7.87C29.21 7.52 29.71 7.35 30.32 7.35C30.87 7.35 31.34 7.52 31.73 7.85C32.12 8.18 32.31 8.69 32.31 9.38C32.31 10.07 32.12 10.58 31.73 10.91C31.34 11.24 30.87 11.41 30.32 11.41C29.71 11.41 29.21 11.23 28.83 10.88C28.46 10.54 28.27 10.03 28.27 9.38ZM40.19 8.69L36.64 8.69C36.70 8.26 36.92 7.92 37.27 7.66C37.63 7.41 38.05 7.28 38.51 7.28C39.50 7.28 40.06 7.75 40.19 8.69ZM36.61 9.73L41.73 9.73C41.75 9.61 41.76 9.45 41.76 9.25C41.76 8.25 41.47 7.45 40.88 6.88C40.29 6.31 39.50 6.02 38.51 6.02C37.51 6.02 36.69 6.33 36.06 6.96C35.43 7.59 35.11 8.40 35.11 9.38C35.11 10.38 35.41 11.19 36.02 11.81C36.62 12.43 37.45 12.74 38.51 12.74C39.92 12.74 40.95 12.24 41.61 11.24L40.50 10.56C40.15 11.13 39.48 11.41 38.51 11.41C38.00 11.41 37.57 11.27 37.23 10.98C36.88 10.69 36.68 10.27 36.61 9.73ZM42.60 9.38C42.60 10.44 42.91 11.27 43.54 11.86C44.17 12.45 44.94 12.74 45.86 12.74C46.86 12.74 47.62 12.31 48.13 11.45L48.13 12.60L49.60 12.60L49.60 1.68L48.13 1.68L48.13 7.31C47.62 6.45 46.86 6.02 45.86 6.02C44.94 6.02 44.17 6.31 43.54 6.90C42.91 7.49 42.60 8.32 42.60 9.38ZM44.09 9.38C44.09 8.73 44.28 8.22 44.65 7.87C45.03 7.52 45.53 7.35 46.14 7.35C46.69 7.35 47.16 7.52 47.55 7.85C47.94 8.18 48.13 8.69 48.13 9.38C48.13 10.07 47.94 10.58 47.55 10.91C47.16 11.24 46.69 11.41 46.14 11.41C45.53 11.41 45.03 11.23 44.65 10.88C44.28 10.54 44.09 10.03 44.09 9.38ZM56.43 9.30L55.20 10.11C55.54 10.90 56.02 11.54 56.64 12.02C57.27 12.50 58.03 12.74 58.93 12.74C59.97 12.74 60.78 12.50 61.36 12.01C61.94 11.53 62.23 10.84 62.23 9.94C62.23 8.50 61.35 7.47 59.60 6.85C59.32 6.74 59.10 6.66 58.93 6.59C58.77 6.53 58.58 6.44 58.37 6.33C58.16 6.23 58.00 6.12 57.89 6.01C57.78 5.91 57.68 5.77 57.60 5.62C57.52 5.47 57.48 5.30 57.48 5.12C57.48 4.83 57.60 4.58 57.84 4.38C58.08 4.17 58.40 4.07 58.81 4.07C59.32 4.07 59.72 4.21 60.02 4.49C60.32 4.77 60.60 5.17 60.86 5.68L62.05 4.82C61.48 3.38 60.44 2.66 58.94 2.66C58.06 2.66 57.33 2.88 56.76 3.32C56.18 3.77 55.89 4.34 55.89 5.04C55.89 6.40 56.72 7.38 58.38 7.98C58.70 8.09 58.93 8.18 59.07 8.23C59.21 8.29 59.40 8.38 59.65 8.51C59.89 8.64 60.07 8.77 60.19 8.89C60.30 9.01 60.40 9.17 60.50 9.37C60.60 9.57 60.65 9.80 60.65 10.04C60.65 10.45 60.50 10.77 60.19 11.00C59.89 11.23 59.49 11.34 58.98 11.34C58.41 11.34 57.93 11.16 57.52 10.81C57.11 10.45 56.75 9.95 56.43 9.30ZM63.84 3.92L63.84 6.16L62.79 6.16L62.79 7.49L63.84 7.49L63.84 12.60L65.31 12.60L65.31 7.49L66.36 7.49L66.36 6.16L65.31 6.16L65.31 3.92ZM66.50 6.16L69.10 12.21L67.62 15.68L69.30 15.68L73.50 6.16L71.82 6.16L70.00 10.71L68.18 6.16ZM74.27 1.68L74.27 12.60L75.74 12.60L75.74 1.68ZM82.15 8.69L78.60 8.69C78.66 8.26 78.87 7.92 79.23 7.66C79.59 7.41 80.01 7.28 80.47 7.28C81.46 7.28 82.02 7.75 82.15 8.69ZM78.57 9.73L83.69 9.73C83.71 9.61 83.72 9.45 83.72 9.25C83.72 8.25 83.43 7.45 82.84 6.88C82.25 6.31 81.46 6.02 80.47 6.02C79.46 6.02 78.65 6.33 78.02 6.96C77.39 7.59 77.07 8.40 77.07 9.38C77.07 10.38 77.37 11.19 77.97 11.81C78.58 12.43 79.41 12.74 80.47 12.74C81.88 12.74 82.91 12.24 83.57 11.24L82.46 10.56C82.11 11.13 81.44 11.41 80.47 11.41C79.96 11.41 79.53 11.27 79.18 10.98C78.84 10.69 78.63 10.27 78.57 9.73ZM85.69 10.25L84.49 10.78C84.59 11.31 84.90 11.77 85.41 12.16C85.92 12.55 86.50 12.74 87.15 12.74C87.89 12.74 88.50 12.59 88.98 12.28C89.47 11.97 89.71 11.52 89.71 10.92C89.71 10.31 89.53 9.84 89.16 9.51C88.79 9.17 88.31 8.89 87.72 8.68C87.24 8.50 86.88 8.34 86.65 8.20C86.41 8.05 86.30 7.89 86.30 7.71C86.30 7.39 86.58 7.22 87.14 7.22C87.65 7.22 88.07 7.46 88.41 7.92L89.54 7.28C89.34 6.91 89.02 6.60 88.60 6.37C88.17 6.14 87.68 6.02 87.12 6.02C86.51 6.02 85.97 6.17 85.51 6.48C85.05 6.79 84.83 7.20 84.83 7.71C84.83 8.66 85.51 9.35 86.88 9.79C87.31 9.92 87.64 10.07 87.86 10.23C88.09 10.40 88.20 10.62 88.20 10.88C88.20 11.23 87.87 11.41 87.22 11.41C86.87 11.41 86.54 11.31 86.25 11.11C85.96 10.91 85.78 10.62 85.69 10.25Z"></path></g><defs data-v-423bf9ae=""><linearGradient data-v-423bf9ae="" gradientTransform="rotate(25)" id="d02d0a75-0e99-4ed7-8730-e7ed1a0da534" x1="0%" y1="0%" x2="100%" y2="0%"><stop data-v-423bf9ae="" offset="0%" style="stop-color: rgb(103, 99, 93); stop-opacity: 1;"></stop><stop data-v-423bf9ae="" offset="100%" style="stop-color: rgb(255, 214, 173); stop-opacity: 1;"></stop></linearGradient></defs><g data-v-423bf9ae="" id="1ebc9063-5d8e-4dad-a2e1-8af17b06e539" transform="matrix(1.125,0,0,1.125,-11.366875171661377,-10.247375011444092)" stroke="none" fill="url(#d02d0a75-0e99-4ed7-8730-e7ed1a0da534)"><style></style><path d="M65.106 27.546h-1.533c-.387-3.943-3.72-7.034-7.764-7.034s-7.377 3.091-7.765 7.034h-1.229a1 1 0 0 0-1 1v4.803a1 1 0 0 0 1 1h.518v30.673h-.518a1 1 0 0 0-1 1v4.804a1 1 0 0 0 1 1h1.543c.441 3.832 3.701 6.819 7.649 6.819s7.207-2.987 7.648-6.819h1.45a1 1 0 0 0 1-1v-4.804a1 1 0 0 0-1-1h-.515V34.349h.517a1 1 0 0 0 1-1v-4.803a1 1 0 0 0-1.001-1zm-9.296-5.034c2.938 0 5.368 2.198 5.746 5.034H50.063c.378-2.837 2.808-5.034 5.747-5.034zm-7.995 7.034h16.291v2.803H47.815v-2.803zm1.518 13.197l13.257 8.826v5.744l-13.257-8.827v-5.743zm13.257 6.424L49.333 40.34v-5.744l13.257 8.827v5.744zm-13.257 9.879l8.882 5.975h-8.882v-5.975zm6.675 17.599c-2.844 0-5.201-2.094-5.628-4.819h11.256c-.428 2.725-2.785 4.819-5.628 4.819zm8.098-6.82H47.815v-2.804h16.291v2.804zm-2.329-4.804c-.017-.014-.027-.033-.045-.046l-12.398-8.341v-5.746l13.257 8.827v5.306h-.814zm.813-24l-10.021-6.672H62.59v6.672z"></path><path d="M55.961 15.228c-10.699 0-20.268 4.919-26.572 12.613H12.125V10.979a1 1 0 1 0-2 0v78a1 1 0 1 0 2 0V71.341h17.296c6.304 7.671 15.86 12.573 26.54 12.573 18.938 0 34.344-15.406 34.344-34.343 0-18.937-15.407-34.343-34.344-34.343zM12.125 69.341v-39.5h15.752a34.142 34.142 0 0 0-6.259 19.73 34.144 34.144 0 0 0 6.287 19.77h-15.78zm43.836 12.573c-17.834 0-32.343-14.509-32.343-32.343s14.509-32.344 32.343-32.344 32.344 14.51 32.344 32.344-14.51 32.343-32.344 32.343z"></path></g><!----></svg>